<svg xmlns="http://www.w3.org/2000/svg" viewBox="0 0 29.684 29.684">
  <defs>
    <style>
      .menu-btn {
        fill: #009de0;
      }
    </style>
  </defs>
  <path id="path" class="menu-btn" d="M29.074,29.357a4.184,4.184,0,0,1-7.916,0H3.914a1.414,1.414,0,1,1,0-2.827H21.158a4.184,4.184,0,0,1,7.916,0h1.7a1.414,1.414,0,0,1,0,2.827ZM23.7,27.943a1.414,1.414,0,1,0,1.414-1.414A1.335,1.335,0,0,0,23.7,27.943ZM21.3,8.154a4.184,4.184,0,0,1-7.916,0H3.914A1.335,1.335,0,0,1,2.5,6.741,1.335,1.335,0,0,1,3.914,5.327h9.471a4.184,4.184,0,0,1,7.916,0H30.77a1.335,1.335,0,0,1,1.414,1.414A1.335,1.335,0,0,1,30.77,8.154ZM15.928,6.741a1.414,1.414,0,1,0,2.827,0,1.414,1.414,0,1,0-2.827,0ZM30.77,18.755H13.525a4.184,4.184,0,0,1-7.916,0h-1.7a1.414,1.414,0,1,1,0-2.827h1.7a4.184,4.184,0,0,1,7.916,0H30.77a1.414,1.414,0,0,1,0,2.827ZM8.154,17.342a1.335,1.335,0,0,0,1.414,1.414,1.414,1.414,0,0,0,0-2.827,1.335,1.335,0,0,0-1.414,1.414Z" transform="translate(-2.5 -2.5)"/>
</svg>
